<svg width="20" height="21" viewBox="0 0 20 21" fill="none" xmlns="http://www.w3.org/2000/svg">
<path d="M0 0.5H4V4.5H0V0.5Z" fill="#44CF8A"/>
<path d="M4 4.5H8V8.5H4V4.5Z" fill="#44CF8A"/>
<path d="M0 8.5H4V12.5H0V8.5Z" fill="#44CF8A"/>
<path d="M4 12.5H8V16.5H4V12.5Z" fill="#44CF8A"/>
<path d="M12 4.5H16V8.5H12V4.5Z" fill="#44CF8A"/>
<path d="M8 8.5H12V12.5H8V8.5Z" fill="#44CF8A"/>
<path d="M0 16.5H4V20.5H0V16.5Z" fill="#44CF8A"/>
<path d="M16 8.5H20V12.5H16V8.5Z" fill="#44CF8A"/>
<path d="M8 0.5H12V4.5H8V0.5Z" fill="#44CF8A"/>
<path d="M12 12.5H16V16.5H12V12.5Z" fill="#44CF8A"/>
<path d="M8 16.5H12V20.5H8V16.5Z" fill="#44CF8A"/>
<path d="M16 0.5H20V4.5H16V0.5Z" fill="#44CF8A"/>
<path d="M16 16.5H20V20.5H16V16.5Z" fill="#44CF8A"/>
</svg>
