<svg width="36" height="36" viewBox="0 0 36 36" fill="none" xmlns="http://www.w3.org/2000/svg">
<rect width="36" height="36" rx="18" fill="white" fill-opacity="0.05"/>
<rect width="36" height="36" rx="18" fill="url(#paint0_radial_371_220)"/>
<rect x="0.5625" y="0.5625" width="34.875" height="34.875" rx="17.4375" stroke="white" stroke-opacity="0.15" stroke-width="1.125"/>
<path d="M27.9932 26.4939C26.8119 26.4658 25.6588 26.4658 24.4775 26.4939C24.2244 26.4939 24.1682 26.4377 24.1682 26.1846C24.1682 24.1033 24.1682 21.9939 24.1682 19.9127C24.1682 19.4346 24.14 18.9564 23.9994 18.5064C23.5775 17.0439 21.89 16.5096 20.6807 17.4939C20.0338 18.0002 19.7807 18.7033 19.7807 19.5471C19.7807 21.5158 19.7807 23.4846 19.7807 25.4533C19.7807 25.7064 19.7525 25.9596 19.7807 26.2408C19.8088 26.4658 19.6963 26.5221 19.4994 26.4939C18.29 26.4939 17.1088 26.4939 15.8994 26.4939C15.6744 26.4939 15.6182 26.4377 15.6182 26.2127C15.6463 24.4408 15.6463 22.6689 15.6463 20.8689C15.6463 18.6752 15.6463 16.4814 15.6182 14.3158C15.6182 14.0627 15.6744 14.0064 15.8994 14.0064C17.1088 14.0064 18.29 14.0064 19.4994 14.0064C19.7244 14.0064 19.7807 14.0627 19.7807 14.2877C19.7807 14.7377 19.7807 15.1877 19.7807 15.7221C19.865 15.6377 19.8932 15.6096 19.9213 15.5814C21.0182 13.9783 22.565 13.5283 24.3932 13.8096C26.5025 14.1471 27.8525 15.6096 28.19 17.8596C28.2744 18.3939 28.3025 18.9283 28.3025 19.4627C28.3025 21.7127 28.3025 23.9346 28.3025 26.1846C28.3025 26.4096 28.2463 26.4939 27.9932 26.4939Z" fill="white"/>
<path d="M13.3688 20.2501C13.3688 22.2188 13.3688 24.1876 13.3688 26.1563C13.3688 26.4095 13.3125 26.4938 13.0594 26.4938C11.8781 26.4657 10.6969 26.4938 9.51563 26.4938C9.29063 26.4938 9.23438 26.4376 9.23438 26.2126C9.23438 22.247 9.23438 18.2532 9.23438 14.2876C9.23438 14.0907 9.29063 14.0063 9.51562 14.0063C10.725 14.0063 11.9344 14.0063 13.1438 14.0063C13.3969 14.0063 13.425 14.0907 13.425 14.3157C13.3688 16.2845 13.3688 18.2532 13.3688 20.2501Z" fill="white"/>
<path d="M13.5651 10.7436C13.2838 11.8686 12.1307 12.5155 10.8088 12.2905C9.4026 12.0655 8.6151 10.6874 9.12135 9.33739C9.45885 8.49364 10.2745 7.98739 11.3151 8.01552C12.8901 7.98739 13.9307 9.25302 13.5651 10.7436Z" fill="white"/>
<defs>
<radialGradient id="paint0_radial_371_220" cx="0" cy="0" r="1" gradientUnits="userSpaceOnUse" gradientTransform="translate(17.069 38.25) rotate(-6.77793) scale(19.0643 80.2609)">
<stop stop-color="#00E599"/>
<stop offset="1" stop-color="#00E599" stop-opacity="0.25"/>
</radialGradient>
</defs>
</svg>
