<svg width="41" height="40" viewBox="0 0 41 40" fill="none" xmlns="http://www.w3.org/2000/svg">
<path d="M20.3268 12.7763C21.3122 12.6241 22.4245 12.8342 23.3102 13.2744C24.715 13.9726 25.6364 15.1575 26.1237 16.6298C27.2035 16.726 28.2578 17.0922 29.0446 17.8623C29.894 18.6937 30.3192 19.8312 30.3288 21.0097C30.339 22.2723 29.8752 23.359 28.987 24.2529C27.628 25.6203 26.1862 25.5504 24.4147 25.5605L21.7545 25.5703L17.9831 25.5566C17.0612 25.5559 16.05 25.6401 15.15 25.4423C14.4994 25.2992 13.8523 24.9704 13.3307 24.5595C12.3986 23.8255 11.7804 22.7965 11.6422 21.6142C11.4971 20.3716 11.7407 19.2267 12.527 18.2382C13.3998 17.1411 14.4903 16.7369 15.8434 16.582C16.0716 15.974 16.337 15.3932 16.7272 14.8701C17.6045 13.6939 18.8834 12.9794 20.3268 12.7763ZM20.8161 14.7509C19.8698 14.8458 18.9881 15.2381 18.3747 15.9824C18.3016 16.071 18.233 16.163 18.1696 16.2587C18.1061 16.3546 18.048 16.4538 17.9948 16.5556C17.9415 16.6575 17.8936 16.7623 17.8512 16.8691C17.8088 16.976 17.772 17.0855 17.7409 17.1962C17.6268 17.6104 17.6697 18.6781 17.3893 18.874C17.0801 18.895 16.7441 18.7448 16.445 18.6738C15.6251 18.4794 14.6976 18.7507 14.1452 19.3906C13.7016 19.9044 13.5184 20.5892 13.5729 21.2587C13.5759 21.2986 13.5797 21.3383 13.5846 21.3779C13.5896 21.4177 13.5962 21.4575 13.6032 21.497C13.6101 21.5365 13.6177 21.5761 13.6266 21.6152C13.6355 21.6541 13.6451 21.6929 13.6559 21.7314C13.6668 21.77 13.6793 21.8086 13.692 21.8466C13.7048 21.8846 13.7184 21.9227 13.7331 21.9599C13.7477 21.9971 13.7635 22.0338 13.7799 22.0703C13.7964 22.1068 13.8134 22.143 13.8317 22.1787C13.85 22.2143 13.8692 22.2495 13.8893 22.2841C13.9093 22.3188 13.9301 22.3531 13.9518 22.3867C13.9736 22.4203 13.9967 22.4537 14.0202 22.4863C14.0435 22.5187 14.0674 22.5507 14.0924 22.582C14.1175 22.6133 14.144 22.6437 14.1706 22.6738C14.1971 22.7038 14.2245 22.733 14.2526 22.7617C14.2806 22.7903 14.3091 22.8184 14.3385 22.8457C14.368 22.8729 14.3976 22.9 14.4284 22.9257C14.7472 23.1952 15.125 23.401 15.5338 23.4921C16.2392 23.6494 17.0675 23.5749 17.7897 23.5742H24.2243C24.9411 23.5764 25.7851 23.6659 26.484 23.4951C26.5391 23.4816 26.594 23.4664 26.6481 23.4492C26.7021 23.432 26.7555 23.4124 26.8082 23.3916C26.8611 23.3707 26.9132 23.3476 26.9645 23.3232C27.0158 23.2988 27.0664 23.2729 27.1159 23.2451C27.1653 23.2173 27.2139 23.1874 27.2614 23.1562C27.3087 23.1252 27.355 23.0927 27.4 23.0586C27.4453 23.0242 27.4901 22.9884 27.5329 22.9511C27.5756 22.9139 27.6168 22.875 27.6569 22.8349C28.157 22.3326 28.3714 21.6609 28.3688 20.9619C28.3662 20.3116 28.1158 19.7168 27.6471 19.2656C27.6183 19.2381 27.5884 19.2115 27.5582 19.1855C27.5279 19.1594 27.4961 19.1339 27.4645 19.1093C27.4331 19.0849 27.4014 19.0609 27.3688 19.038C27.3361 19.0151 27.3021 18.993 27.2682 18.9716C27.2345 18.9504 27.2004 18.9297 27.1657 18.9101C27.1308 18.8905 27.0951 18.8713 27.0592 18.8535C27.0234 18.8356 26.9865 18.8187 26.9499 18.8027C26.9135 18.7868 26.8766 18.7719 26.8395 18.7578C26.8021 18.7436 26.7642 18.73 26.7262 18.7177C26.6882 18.7054 26.6496 18.6939 26.611 18.6836C26.5723 18.6731 26.5329 18.6637 26.4938 18.6552C26.4549 18.6468 26.4159 18.6393 26.3766 18.6328C26.3372 18.6263 26.2972 18.6207 26.2575 18.6162C26.2177 18.6117 26.1773 18.608 26.1374 18.6054C26.0977 18.6029 26.058 18.6021 26.0182 18.6015C25.9783 18.601 25.938 18.601 25.8981 18.6025C25.4142 18.6155 24.7704 19.0634 24.4372 18.788C24.2665 18.4534 24.3388 17.905 24.2926 17.5263C24.1442 16.3097 23.0933 15.2676 21.9577 14.8994C21.8658 14.8697 21.7725 14.8443 21.6784 14.8232C21.5842 14.8021 21.4889 14.7858 21.3932 14.7734C21.2977 14.7609 21.2015 14.7527 21.1051 14.749C21.0088 14.7453 20.9124 14.7459 20.8161 14.7509Z" fill="#00DA90"/>
<path d="M21.3838 4.18805C22.3128 3.21747 23.2768 2.27601 24.2338 1.3329C24.7295 1.82512 25.2201 2.32246 25.7054 2.82492C25.0963 3.45529 24.4602 4.06383 23.8378 4.68133L26.8786 7.72355L28.7192 5.88452L30.2265 7.38501C29.6064 7.99159 28.9908 8.60263 28.3796 9.21815L31.4355 12.2855L33.2944 10.4346C33.7982 10.931 34.2956 11.4336 34.7867 11.9426L32.9349 13.7884L33.8127 14.6603L35.9943 16.8461C36.5924 16.25 37.1995 15.6632 37.8156 15.0858C38.3155 15.5377 38.7968 16.0378 39.2518 16.5349C38.2832 17.4836 37.3327 18.4524 36.3742 19.4114L27.3633 10.4C25.9504 9.0045 24.5446 7.6018 23.1459 6.19196C22.6115 5.65421 22.0559 5.13267 21.5344 4.58269C21.4492 4.49275 21.3587 4.40897 21.3185 4.28877L21.3838 4.18805Z" fill="url(#paint0_radial_726_33971)"/>
<path d="M21.3341 35.7148C22.1046 34.8972 22.9206 34.1144 23.7139 33.3184L28.3778 28.6561C31.0334 26.0097 33.6457 23.3129 36.3407 20.707L39.2817 23.646L37.8671 25.0555L36.0063 23.2078C35.2245 23.9411 34.48 24.7232 33.7226 25.4821L32.9334 26.2748L34.8118 28.1557L33.3142 29.6614L31.4293 27.7798L28.3473 30.8634L30.1715 32.6856C29.6746 33.201 29.1553 33.6978 28.6473 34.2024L26.8255 32.3887L23.8105 35.407C24.397 36.0212 24.9932 36.6259 25.5989 37.2212L24.2002 38.6204C23.2458 37.6581 22.2448 36.7175 21.3341 35.7148Z" fill="url(#paint1_radial_726_33971)"/>
<path d="M6.47942 11.8714L7.9896 10.3685L9.84722 12.2131C10.8558 11.185 11.8779 10.1706 12.9135 9.16997C12.329 8.52586 11.6794 7.9229 11.0677 7.30331C11.5649 6.77774 12.0885 6.27363 12.5995 5.76136C13.2282 6.3758 13.8431 7.00596 14.4639 7.62839L17.5453 4.55092L16.8941 3.89958L15.6849 2.68952C16.1645 2.20027 16.6482 1.71509 17.136 1.23398L20.0361 4.14121C18.4233 5.81596 16.7396 7.42662 15.0988 9.07412L4.87774 19.2953C3.85542 18.4071 2.91377 17.3645 1.96846 16.3936C2.44388 15.9126 2.92383 15.4362 3.40833 14.9644C4.02369 15.5817 4.64302 16.195 5.26632 16.8043L8.3394 13.7484L6.47942 11.8714Z" fill="url(#paint2_radial_726_33971)"/>
<path d="M2.02861 23.4963C2.96468 22.5151 3.94571 21.5697 4.90356 20.6093L19.961 35.6606L17.0393 38.5618C16.5404 38.0659 16.0445 37.567 15.5516 37.0652C15.9366 36.6695 16.3235 36.2757 16.7125 35.8838L17.3922 35.1971C16.4087 34.1921 15.4005 33.21 14.4097 32.212L12.5595 34.0527L11.0443 32.5298C11.6524 31.9162 12.2664 31.3085 12.8861 30.7066L9.86295 27.6701C9.23613 28.2716 8.62947 28.898 8.01439 29.5118L6.49226 27.9864C7.09328 27.3593 7.71565 26.7498 8.32746 26.1331C7.34354 25.1325 6.33607 24.1529 5.34019 23.1641L3.49652 24.9879C3.0003 24.4975 2.51099 24.0003 2.02861 23.4963Z" fill="url(#paint3_radial_726_33971)"/>
<path d="M34.7806 26.5251L36.2875 25.0064C37.749 26.4357 39.1796 27.8987 40.621 29.3483L39.0912 30.8837C37.6388 29.4462 36.2019 27.9933 34.7806 26.5251Z" fill="#E1FFDE" fill-opacity="0.45"/>
<path d="M30.1794 31.0974C30.6777 30.5796 31.1977 30.0796 31.707 29.5723L36.044 33.8904C35.524 34.3853 35.0113 34.8875 34.5058 35.3971C33.0586 33.9706 31.6021 32.5479 30.1794 31.0974Z" fill="#E1FFDE" fill-opacity="0.45"/>
<path d="M25.5962 35.6903C26.0733 35.183 26.5781 34.698 27.0701 34.205C28.5058 35.6345 29.9658 37.0377 31.3787 38.4904C30.8992 39.0064 30.3822 39.4964 29.886 39.9969C28.4674 38.5504 27.0069 37.144 25.5962 35.6903Z" fill="#E1FFDE" fill-opacity="0.45"/>
<path d="M1.0363 28.9082C2.29885 27.6027 3.60527 26.3351 4.90027 25.0616L6.3995 26.5501L6.18368 26.7787L2.2782 30.6936L0.782233 29.1851L1.0363 28.9082Z" fill="#E1FFDE" fill-opacity="0.45"/>
<path d="M34.9294 13.3986C36.3027 12.0127 37.668 10.6108 39.0789 9.26308C39.3051 9.48755 40.4807 10.5717 40.5205 10.7804C39.1395 12.1699 37.7468 13.5476 36.3426 14.9136C36.1253 14.6886 34.936 13.5865 34.9294 13.3986Z" fill="#E1FFDE" fill-opacity="0.45"/>
<path d="M9.83454 38.3044C11.2157 36.9109 12.6055 35.526 14.004 34.1499L15.4915 35.6273L11.3054 39.8108C10.8107 39.313 10.3204 38.8109 9.83454 38.3044Z" fill="#E1FFDE" fill-opacity="0.45"/>
<path d="M9.93592 1.47978L11.4076 0.00734458C12.8066 1.40175 14.2251 2.78402 15.5903 4.21141C15.1387 4.72009 14.6283 5.19196 14.1484 5.67505L9.93592 1.47978Z" fill="#E1FFDE" fill-opacity="0.45"/>
<path d="M30.3391 8.86083C30.8817 8.37265 31.3898 7.83898 31.9068 7.32377L34.5384 4.69801C35.0442 5.15976 35.5188 5.65883 36.0012 6.14487C34.6672 7.59028 33.2141 8.95925 31.8158 10.3439L30.3391 8.86083Z" fill="#E1FFDE" fill-opacity="0.45"/>
<path d="M5.34044 6.06014C5.81119 5.56536 6.30152 5.08704 6.78272 4.60239L9.67216 7.48254C10.0904 7.89762 10.6381 8.33828 10.9813 8.81376L9.53785 10.2633C8.13162 8.87098 6.70624 7.49192 5.34044 6.06014Z" fill="#E1FFDE" fill-opacity="0.45"/>
<path d="M5.33533 33.7221C6.672 32.3302 8.05346 30.9443 9.45808 29.6226C9.94415 30.1024 10.4254 30.587 10.9018 31.0764L6.77712 35.2094C6.4491 34.8775 5.52541 34.0843 5.33533 33.7221Z" fill="#E1FFDE" fill-opacity="0.45"/>
<path d="M0.757967 10.5988C1.23124 10.1229 1.70726 9.64978 2.18603 9.17944C3.60008 10.5645 4.99532 11.9682 6.37175 13.3906C5.93726 13.8853 5.4309 14.3401 4.96396 14.8058C3.55488 13.4106 2.15289 12.0082 0.757967 10.5988Z" fill="#E1FFDE" fill-opacity="0.45"/>
<path d="M25.8139 4.30413L29.9818 0.124307L31.4012 1.55851C30.0314 2.96417 28.6199 4.33357 27.2313 5.72116C26.7531 5.25461 26.2806 4.78227 25.8139 4.30413Z" fill="#E1FFDE" fill-opacity="0.45"/>
<defs>
<radialGradient id="paint0_radial_726_33971" cx="0" cy="0" r="1" gradientUnits="userSpaceOnUse" gradientTransform="translate(30.2941 10.3732) rotate(38.4937) scale(34.1255 3.83667)">
<stop stop-color="#E1FFDE"/>
<stop offset="1" stop-color="#E1FFDE" stop-opacity="0.25"/>
</radialGradient>
<radialGradient id="paint1_radial_726_33971" cx="0" cy="0" r="1" gradientUnits="userSpaceOnUse" gradientTransform="translate(30.2964 29.6947) rotate(-26.0607) scale(20.6209 6.32156)">
<stop stop-color="#E1FFDE"/>
<stop offset="1" stop-color="#E1FFDE" stop-opacity="0.25"/>
</radialGradient>
<radialGradient id="paint2_radial_726_33971" cx="0" cy="0" r="1" gradientUnits="userSpaceOnUse" gradientTransform="translate(10.9924 10.2842) rotate(-26.5896) scale(20.775 6.21659)">
<stop stop-color="#E1FFDE"/>
<stop offset="1" stop-color="#E1FFDE" stop-opacity="0.25"/>
</radialGradient>
<radialGradient id="paint3_radial_726_33971" cx="0" cy="0" r="1" gradientUnits="userSpaceOnUse" gradientTransform="translate(10.9751 29.5866) rotate(38.6176) scale(33.9829 3.74907)">
<stop stop-color="#E1FFDE"/>
<stop offset="1" stop-color="#E1FFDE" stop-opacity="0.25"/>
</radialGradient>
</defs>
</svg>
