<svg width="36" height="36" viewBox="0 0 36 36" fill="none" xmlns="http://www.w3.org/2000/svg">
<rect width="36" height="36" rx="18" fill="white" fill-opacity="0.05"/>
<rect width="36" height="36" rx="18" fill="url(#paint0_radial_371_210)"/>
<rect x="0.5625" y="0.5625" width="34.875" height="34.875" rx="17.4375" stroke="white" stroke-opacity="0.15" stroke-width="1.125"/>
<path d="M25.5137 9.14212C25.5137 9.14212 27.034 8.46086 27.0605 9.58744L23.7314 26.3101C23.7314 26.3101 23.2599 27.4638 22.002 26.9136L17.2842 23.2964L14.2432 26.0484C14.2375 26.0527 14.004 26.231 13.7451 26.1275C13.7389 26.1266 13.5057 26.0892 13.2471 25.2359C12.9603 24.3494 11.559 19.7549 11.5439 19.7056L6.85156 18.1324C6.83547 18.1263 6.14315 17.8639 6.06543 17.3199C5.98705 16.7696 6.87793 16.4546 6.87793 16.4546L25.5137 9.14212ZM23.4434 12.5494C23.4693 12.1565 22.8145 12.5494 22.8145 12.5494L12.5137 19.1021C12.3564 19.2069 12.304 19.3911 12.3564 19.5484L13.5889 23.5845C13.6676 23.8202 14.0081 23.7938 14.0605 23.5318L14.3486 21.0679C14.3487 20.9633 14.4011 20.8849 14.4795 20.8326C15.4754 19.9415 22.8918 13.2853 23.208 12.9693C23.5488 12.6023 23.4434 12.5494 23.4434 12.5494Z" fill="white"/>
<defs>
<radialGradient id="paint0_radial_371_210" cx="0" cy="0" r="1" gradientUnits="userSpaceOnUse" gradientTransform="translate(17.069 38.25) rotate(-6.77793) scale(19.0643 80.2609)">
<stop stop-color="#00E599"/>
<stop offset="1" stop-color="#00E599" stop-opacity="0.25"/>
</radialGradient>
</defs>
</svg>
