<svg width="21" height="21" viewBox="0 0 21 21" fill="none" xmlns="http://www.w3.org/2000/svg">
<path d="M9.93418 3.84304C9.93418 1.93246 9.93418 0.977172 9.31179 0.618939C8.68941 0.260706 7.85956 0.73835 6.19987 1.69364L5.00007 2.38423C3.34038 3.33951 2.51053 3.81716 2.51053 4.53362C2.51053 5.25009 3.34038 5.72773 5.00007 6.68302L6.19987 7.37361C7.85956 8.3289 8.68941 8.80654 9.31179 8.44831C9.93418 8.09007 9.93418 7.13479 9.93418 5.22421V3.84304Z" fill="#44CF8A"/>
<path d="M4.43425 7.66001C2.77456 6.70472 1.94472 6.22708 1.32233 6.58531C0.699951 6.94355 0.699951 7.89883 0.699951 9.80941V11.1906C0.699951 13.1012 0.699951 14.0564 1.32233 14.4147C1.94472 14.7729 2.77456 14.2953 4.43425 13.34L5.63406 12.6494C7.29375 11.6941 8.1236 11.2165 8.1236 10.5C8.1236 9.78353 7.29375 9.30589 5.63406 8.3506L4.43425 7.66001Z" fill="#44CF8A"/>
<path d="M5.00007 14.317C3.34037 15.2723 2.51053 15.7499 2.51053 16.4664C2.51053 17.1828 3.34037 17.6605 5.00007 18.6158L6.19988 19.3064C7.85956 20.2616 8.68941 20.7393 9.31179 20.3811C9.93418 20.0228 9.93418 19.0675 9.93418 17.157V15.7758C9.93418 13.8652 9.93418 12.9099 9.31179 12.5517C8.68941 12.1935 7.85956 12.6711 6.19988 13.6264L5.00007 14.317Z" fill="#44CF8A"/>
<path d="M11.0658 17.1569C11.0658 19.0675 11.0658 20.0228 11.6882 20.381C12.3106 20.7393 13.1404 20.2616 14.8001 19.3063L15.9999 18.6158C17.6595 17.6605 18.4894 17.1828 18.4894 16.4664C18.4894 15.7499 17.6595 15.2723 15.9999 14.317L14.8001 13.6264C13.1404 12.6711 12.3106 12.1935 11.6882 12.5517C11.0658 12.9099 11.0658 13.8652 11.0658 15.7758V17.1569Z" fill="#44CF8A"/>
<path d="M16.5657 13.34C18.2253 14.2953 19.0552 14.7729 19.6776 14.4147C20.3 14.0564 20.3 13.1011 20.3 11.1906V9.80943C20.3 7.89886 20.3 6.94357 19.6776 6.58534C19.0552 6.2271 18.2253 6.70475 16.5656 7.66003L15.3659 8.3506C13.7062 9.30589 12.8763 9.78353 12.8763 10.5C12.8763 11.2165 13.7062 11.6941 15.3659 12.6494L16.5657 13.34Z" fill="#44CF8A"/>
<path d="M15.9999 6.68303C17.6595 5.72774 18.4894 5.2501 18.4894 4.53363C18.4894 3.81717 17.6595 3.33953 15.9999 2.38424L14.8001 1.69367C13.1404 0.738384 12.3106 0.26074 11.6882 0.618973C11.0658 0.977205 11.0658 1.93249 11.0658 3.84307V5.2242C11.0658 7.13478 11.0658 8.09006 11.6882 8.4483C12.3106 8.80653 13.1404 8.32889 14.8001 7.3736L15.9999 6.68303Z" fill="#44CF8A"/>
</svg>
