<svg width="21" height="21" viewBox="0 0 21 21" fill="none" xmlns="http://www.w3.org/2000/svg">
<path d="M2.95 20.4999C1.21663 17.7698 0.25 14.2062 0.25 10.4999C0.25 6.79366 1.21663 3.23006 2.95 0.5V20.4999Z" fill="#44CF8A"/>
<path d="M20.25 20.5C17.5978 20.5 15.0543 19.4464 13.1789 17.5711C11.3036 15.6957 10.25 13.1522 10.25 10.5C10.25 7.84784 11.3036 5.3043 13.1789 3.42893C15.0543 1.55357 17.5978 0.500001 20.25 0.5L20.25 20.5Z" fill="#44CF8A"/>
<path d="M6.27893 18.0485C7.30101 19.1396 8.52156 19.9701 9.85 20.5V0.5C8.52156 1.02988 7.30101 1.86039 6.27893 2.95148C4.40357 4.95347 3.35 7.66875 3.35 10.5C3.35 13.3312 4.40357 16.0465 6.27893 18.0485Z" fill="#44CF8A"/>
</svg>
