<svg width="24" height="24" viewBox="0 0 24 24" fill="none" xmlns="http://www.w3.org/2000/svg">
<path d="M19.4553 12.0697C19.2949 11.9045 19.1031 11.7731 18.8912 11.6832C18.6793 11.5932 18.4516 11.5465 18.2214 11.5457C17.8428 11.5453 17.4751 11.6718 17.177 11.905V11.83C17.1771 11.5111 17.0876 11.1986 16.9186 10.9282C16.7496 10.6577 16.5079 10.4403 16.2212 10.3007C15.9345 10.1611 15.6143 10.1049 15.2971 10.1387C14.98 10.1724 14.6788 10.2947 14.4279 10.4915C14.4071 10.1837 14.3028 9.8873 14.1264 9.63421C13.9499 9.38113 13.7079 9.18085 13.4263 9.05487C13.1447 8.92889 12.834 8.88195 12.5278 8.9191C12.2215 8.95625 11.9311 9.07608 11.6877 9.26574V4.65202C11.6877 4.20111 11.5086 3.76867 11.1898 3.44983C10.8709 3.13099 10.4385 2.95186 9.98759 2.95186C9.53668 2.95186 9.10424 3.13099 8.7854 3.44983C8.46656 3.76867 8.28743 4.20111 8.28743 4.65202V12.6237C6.92 12.4881 5.86554 12.993 5.294 14.0693C4.78643 15.025 4.72807 16.336 5.12993 17.7608C5.55087 19.2541 6.42129 20.7098 7.64712 21.9702C8.93107 23.2912 10.6395 23.9999 12.3581 23.9999C13.1199 24.0005 13.8752 23.8596 14.5856 23.5844C16.0709 23.0085 17.3349 21.8557 18.2409 20.2507C19.2672 18.4326 19.8325 16.0795 19.921 13.2569C19.9276 13.0378 19.8898 12.8197 19.8098 12.6156C19.7297 12.4115 19.6091 12.2258 19.4553 12.0697ZM14.3479 22.9725C12.2251 23.7957 9.77951 23.2227 8.11742 21.5127C5.58293 18.9064 5.06979 15.891 5.87375 14.3772C6.26623 13.6381 6.94615 13.2582 7.86087 13.2582C8.00343 13.2585 8.14586 13.2671 8.28743 13.2838V16.1872C8.28743 16.2742 8.322 16.3576 8.38354 16.4192C8.44507 16.4807 8.52853 16.5153 8.61556 16.5153C8.70258 16.5153 8.78604 16.4807 8.84758 16.4192C8.90911 16.3576 8.94368 16.2742 8.94368 16.1872V13.0064C8.94368 13.0024 8.94368 12.9984 8.94368 12.9944V4.65202C8.94368 4.51495 8.97068 4.37922 9.02314 4.25259C9.07559 4.12595 9.15247 4.01089 9.2494 3.91397C9.34632 3.81704 9.46138 3.74016 9.58802 3.68771C9.71465 3.63525 9.85038 3.60825 9.98745 3.60825C10.1245 3.60825 10.2602 3.63525 10.3869 3.68771C10.5135 3.74016 10.6286 3.81704 10.7255 3.91397C10.8224 4.01089 10.8993 4.12595 10.9518 4.25259C11.0042 4.37922 11.0312 4.51495 11.0312 4.65202V14.0133C11.0312 14.1003 11.0658 14.1838 11.1273 14.2453C11.1889 14.3068 11.2723 14.3414 11.3593 14.3414C11.4464 14.3414 11.5298 14.3068 11.5914 14.2453C11.6529 14.1838 11.6875 14.1003 11.6875 14.0133V10.6063C11.6875 10.3294 11.7974 10.064 11.9932 9.86822C12.1889 9.67247 12.4544 9.5625 12.7312 9.5625C13.0081 9.5625 13.2735 9.67247 13.4693 9.86822C13.665 10.064 13.775 10.3294 13.775 10.6063V14.0133C13.775 14.1003 13.8096 14.1838 13.8711 14.2453C13.9326 14.3068 14.0161 14.3414 14.1031 14.3414C14.1901 14.3414 14.2736 14.3068 14.3351 14.2453C14.3967 14.1838 14.4312 14.1003 14.4312 14.0133V11.8301C14.4312 11.5531 14.5413 11.2875 14.7372 11.0916C14.933 10.8957 15.1987 10.7857 15.4757 10.7857C15.7527 10.7857 16.0183 10.8957 16.2142 11.0916C16.4101 11.2875 16.5201 11.5531 16.5201 11.8301V14.0133C16.5201 14.1003 16.5547 14.1838 16.6162 14.2453C16.6777 14.3068 16.7612 14.3414 16.8482 14.3414C16.9352 14.3414 17.0187 14.3068 17.0802 14.2453C17.1418 14.1838 17.1763 14.1003 17.1763 14.0133V13.2466C17.1767 12.9697 17.2868 12.7042 17.4826 12.5084C17.6784 12.3126 17.9439 12.2025 18.2208 12.2022C18.363 12.2027 18.5038 12.2316 18.6347 12.2873C18.7657 12.343 18.8842 12.4243 18.9832 12.5264C19.0756 12.6196 19.148 12.7306 19.1963 12.8526C19.2446 12.9746 19.2676 13.1051 19.264 13.2363C19.1066 18.2735 17.3146 21.8221 14.3479 22.9725ZM17.862 16.9885C17.5526 18.1406 16.941 19.7663 15.7836 20.9685C14.8379 21.9508 13.6857 22.4568 12.415 22.4568C12.136 22.4564 11.8575 22.4329 11.5823 22.3868C11.5398 22.3798 11.4991 22.3644 11.4625 22.3416C11.4259 22.3189 11.3942 22.2891 11.3691 22.254C11.344 22.219 11.3261 22.1794 11.3163 22.1374C11.3065 22.0954 11.3051 22.0519 11.3122 22.0094C11.3192 21.9669 11.3346 21.9262 11.3573 21.8896C11.3801 21.853 11.4099 21.8212 11.4449 21.7961C11.48 21.7711 11.5196 21.7531 11.5616 21.7434C11.6036 21.7336 11.6471 21.7322 11.6896 21.7392C13.0864 21.9705 14.3047 21.5581 15.3108 20.5133C16.3713 19.4117 16.9387 17.8959 17.228 16.8183C17.2505 16.7342 17.3056 16.6626 17.381 16.6191C17.4564 16.5756 17.546 16.5638 17.63 16.5864C17.7141 16.609 17.7858 16.664 17.8293 16.7394C17.8728 16.8148 17.8845 16.9044 17.8619 16.9885H17.862ZM5.99037 3.36305L4.20584 1.97447C4.16638 1.9438 4.13445 1.90451 4.11248 1.85962C4.09052 1.81472 4.0791 1.7654 4.0791 1.71542C4.0791 1.66544 4.09052 1.61612 4.11248 1.57122C4.13445 1.52632 4.16638 1.48704 4.20584 1.45636L5.99051 0.0690975C6.05923 0.0156709 6.14636 -0.00826936 6.23273 0.00254328C6.3191 0.0133559 6.39763 0.0580358 6.45106 0.126754C6.50449 0.195472 6.52843 0.282599 6.51761 0.368968C6.5068 0.455338 6.46212 0.533874 6.3934 0.587301L5.3644 1.38722H14.6108L13.5818 0.587301C13.5478 0.56085 13.5193 0.527956 13.498 0.490497C13.4767 0.453038 13.463 0.411748 13.4576 0.368985C13.4523 0.326221 13.4554 0.282822 13.4668 0.241263C13.4782 0.199705 13.4977 0.160803 13.5241 0.126777C13.5506 0.0927515 13.5835 0.0642689 13.6209 0.0429557C13.6584 0.0216424 13.6997 0.0079159 13.7425 0.00255984C13.7852 -0.00279621 13.8286 0.000323093 13.8702 0.0117397C13.9117 0.0231562 13.9506 0.0426464 13.9847 0.0690975L15.7692 1.4566C15.8087 1.48727 15.8406 1.52656 15.8626 1.57145C15.8846 1.61635 15.896 1.66567 15.896 1.71565C15.896 1.76563 15.8846 1.81495 15.8626 1.85985C15.8406 1.90475 15.8087 1.94403 15.7692 1.97471L13.9847 3.36329C13.916 3.41674 13.8289 3.44072 13.7425 3.42994C13.6561 3.41917 13.5776 3.37452 13.5241 3.30582C13.4707 3.23712 13.4467 3.15 13.4575 3.06362C13.4682 2.97724 13.5129 2.89868 13.5816 2.84522L14.6115 2.04375H5.36365L6.3935 2.84532C6.42751 2.87179 6.45598 2.9047 6.47728 2.94217C6.49858 2.97964 6.51229 3.02094 6.51762 3.06371C6.52296 3.10648 6.51982 3.14988 6.50838 3.19144C6.49694 3.233 6.47743 3.27189 6.45097 3.30591C6.4245 3.33993 6.39158 3.3684 6.35411 3.38969C6.31664 3.41099 6.27534 3.4247 6.23257 3.43004C6.1898 3.43537 6.1464 3.43223 6.10484 3.4208C6.06328 3.40936 6.02439 3.38985 5.99037 3.36338V3.36305Z" fill="url(#paint0_linear_319_3872)"/>
<defs>
<linearGradient id="paint0_linear_319_3872" x1="12.0004" y1="0" x2="12.0004" y2="23.9999" gradientUnits="userSpaceOnUse">
<stop stop-color="#E1FFDE"/>
<stop offset="1" stop-color="#E1FFDE" stop-opacity="0"/>
</linearGradient>
</defs>
</svg>
